HIERARCHY
ROOT root
{
	OFFSET	0	13.1	24.9
	CHANNELS 6  Xposition Yposition Zposition Xrotation Yrotation Zrotation
	JOINT spine_1
	{
		OFFSET	0	9.99999	0
		CHANNELS 3  Xrotation Yrotation Zrotation
		JOINT spine_2
		{
			OFFSET	0	112	-10
			CHANNELS 3  Xrotation Yrotation Zrotation
			JOINT spine_3
			{
				OFFSET	0	206.5	19.3
				CHANNELS 3  Xrotation Yrotation Zrotation
				JOINT spine_4
				{
					OFFSET	0	110.4	14.6
					CHANNELS 3  Xrotation Yrotation Zrotation
					JOINT neck_1
					{
						OFFSET	0	71.8	-50.3
						CHANNELS 3  Xrotation Yrotation Zrotation
						JOINT neck_2
						{
							OFFSET	0	86.2	-25.8
							CHANNELS 3  Xrotation Yrotation Zrotation
							JOINT head_ee
							{
								OFFSET	0	179.8	-8.7
								CHANNELS 3  Xrotation Yrotation Zrotation
								End Site
								{
									OFFSET	1	0	0
								}
							}
						}
					}
					JOINT left_clavicle
					{
						OFFSET	-43.2	22.4	-70.8
						CHANNELS 3  Xrotation Yrotation Zrotation
						JOINT left_shoulder
						{
							OFFSET	-93.9	-5.79999	48.7
							CHANNELS 3  Xrotation Yrotation Zrotation
							JOINT left_elbow
							{
								OFFSET	-291.4	-30.8	15.2
								CHANNELS 3  Xrotation Yrotation Zrotation
								JOINT left_lowarm_twist
								{
									OFFSET	-110.7	-3.89999	13.6
									CHANNELS 3  Xrotation Yrotation Zrotation
									JOINT left_hand
									{
										OFFSET	-110.7	-3.89999	13.6
										CHANNELS 3  Xrotation Yrotation Zrotation
										JOINT left_ee
										{
											OFFSET	-80.8	-5.10001	12.1
											CHANNELS 3  Xrotation Yrotation Zrotation
											End Site
											{
												OFFSET	1	0	0
											}
										}
									}
								}
							}
						}
					}
					JOINT right_clavicle
					{
						OFFSET	43.2	22.4	-70.8
						CHANNELS 3  Xrotation Yrotation Zrotation
						JOINT right_shoulder
						{
							OFFSET	93.9	-5.79999	48.7
							CHANNELS 3  Xrotation Yrotation Zrotation
							JOINT right_elbow
							{
								OFFSET	291.4	-30.8	15.2
								CHANNELS 3  Xrotation Yrotation Zrotation
								JOINT right_lowarm_twist
								{
									OFFSET	110.7	-3.89999	13.6
									CHANNELS 3  Xrotation Yrotation Zrotation
									JOINT right_hand
									{
										OFFSET	110.7	-3.89999	13.6
										CHANNELS 3  Xrotation Yrotation Zrotation
										JOINT right_ee
										{
											OFFSET	80.8	-5.10001	12.1
											CHANNELS 3  Xrotation Yrotation Zrotation
											End Site
											{
												OFFSET	1	0	0
											}
										}
									}
								}
							}
						}
					}
				}
			}
		}
	}
	JOINT left_hip
	{
		OFFSET	-82.8	-127.5	0.300001
		CHANNELS 3  Xrotation Yrotation Zrotation
		JOINT left_knee
		{
			OFFSET	-28.2	-396.7	2.2
			CHANNELS 3  Xrotation Yrotation Zrotation
			JOINT left_ankle
			{
				OFFSET	-11.7	-411.3	35.4
				CHANNELS 3  Xrotation Yrotation Zrotation
				JOINT left_toes
				{
					OFFSET	0	-60	-88.6
					CHANNELS 3  Xrotation Yrotation Zrotation
					JOINT left_foot_ee
					{
						OFFSET	-22.5	-16.5	-42.2
						CHANNELS 3  Xrotation Yrotation Zrotation
						End Site
						{
							OFFSET	1	0	0
						}
					}
				}
			}
		}
	}
	JOINT right_hip
	{
		OFFSET	82.8	-127.5	0.300001
		CHANNELS 3  Xrotation Yrotation Zrotation
		JOINT right_knee
		{
			OFFSET	28.2	-396.7	2.2
			CHANNELS 3  Xrotation Yrotation Zrotation
			JOINT right_ankle
			{
				OFFSET	11.7	-411.3	35.4
				CHANNELS 3  Xrotation Yrotation Zrotation
				JOINT right_toes
				{
					OFFSET	0	-60	-88.6
					CHANNELS 3  Xrotation Yrotation Zrotation
					JOINT right_foot_ee
					{
						OFFSET	22.5	-16.5	-42.2
						CHANNELS 3  Xrotation Yrotation Zrotation
						End Site
						{
							OFFSET	1	0	0
						}
					}
				}
			}
		}
	}
}
MOTION
Frames: 16
Frame Time: 0.02
2083.59 723.449 -1510.2 -11.8972 52.9003 5.99512 5.13296 0.613831 4.47608 5.14405 0.328058 4.50598 5.15986 -0.221505 4.51246 5.13179 0.4932 4.49094 -14.6517 14.0242 -0.58056 -15.3205 27.1471 4.25268 -0.0 0.0 -0.0 -7.43445 3.27469 -13.8239 -14.1735 -10.7094 63.4262 2.08812 -45.963 0.885638 45.1213 -0.642088 -5.58132 -1.15123 15.7752 -0.655753 -0.0 0.0 -0.0 10.4473 -4.75799 -20.2421 -45.9183 55.1256 -57.8872 0.720734 19.6481 -0.124806 55.8569 1.41928 6.71286 -5.2343 -14.78 27.6392 0.0 0.0 0.0 144.058 82.8171 -148.259 -19.906 0.296746 3.02498 24.4187 -31.2374 -4.13238 -15.1583 0.0 0.0 -0.0 0.0 -0.0 33.3063 25.3944 -12.1496 -32.1519 0.044353 -4.86981 22.0388 -11.039 2.98784 18.6801 -0.0 -0.0 0.0 0.0 0.0 
2078.89 723.207 -1512.2 -10.9413 53.065 5.12463 5.02167 0.524383 4.57211 5.03327 0.232699 4.59614 5.04189 -0.336908 4.5897 5.01272 0.391395 4.58538 -14.8348 14.6201 -0.740527 -15.592 28.39 4.38432 -0.0 0.0 -0.0 -7.30569 2.67771 -13.7278 -13.1834 -11.0701 62.35 2.12445 -46.4564 0.911864 45.804 -0.685055 -5.65739 -0.776507 13.8174 0.81303 -0.0 0.0 -0.0 10.4733 -3.9521 -20.3624 -46.973 54.726 -57.7971 0.737949 20.0803 -0.130655 56.8645 1.50287 6.81127 -5.35029 -15.893 27.6544 0.0 0.0 0.0 151.405 81.6224 -156.783 -18.9831 0.306353 2.8837 24.6565 -31.2264 -4.16552 -15.1196 0.0 0.0 -0.0 0.0 -0.0 35.7941 24.9322 -14.1349 -31.1229 0.000577044 -4.71797 20.1512 -11.627 2.75796 16.5953 -0.0 -0.0 0.0 0.0 0.0 
2071.61 722.428 -1514.21 -10.0182 52.7783 4.19271 4.86531 0.487868 4.65911 4.87736 0.19074 4.68065 4.88303 -0.402128 4.66728 4.85281 0.3392 4.67226 -15.0005 14.4191 -0.44289 -15.7418 27.8397 4.62786 -0.0 0.0 -0.0 -7.32432 2.7432 -13.7476 -12.0136 -10.3165 61.4876 2.23976 -47.9653 0.996497 45.3121 -0.654006 -5.60263 -0.989355 13.746 -0.547493 -0.0 0.0 -0.0 10.3572 -4.97848 -20.0435 -48.2339 54.4388 -57.1345 0.715464 19.5154 -0.123039 56.4857 1.47123 6.77444 -5.32933 -15.3269 27.9205 0.0 0.0 0.0 155.555 80.3148 -162.564 -18.1816 0.312848 2.7609 22.8017 -30.9352 -3.883 -15.7346 0.0 0.0 -0.0 0.0 -0.0 37.254 24.776 -15.0217 -30.9783 -0.00535231 -4.69659 20.0886 -12.517 2.75387 17.1639 -0.0 -0.0 0.0 0.0 0.0 
2068.21 722.302 -1514.56 -9.91144 51.9511 3.98977 4.83825 0.713208 4.68158 4.85034 0.414201 4.71736 4.87451 -0.185058 4.73186 4.84372 0.563731 4.70187 -15.0061 14.614 -0.549731 -15.774 28.2751 4.60707 -0.0 0.0 -0.0 -7.18102 2.80996 -13.4436 -10.8418 -8.25269 60.5103 2.51824 -51.2751 1.20872 45.198 -0.646872 -5.58989 -0.798172 11.4407 -0.3475 -0.0 0.0 -0.0 10.2423 -4.84703 -19.8263 -48.8905 54.7721 -57.4086 0.725676 19.7724 -0.126472 56.8498 1.50164 6.80984 -5.39498 -16.2159 27.7325 0.0 0.0 0.0 159.92 78.9617 -167.497 -17.0798 0.318973 2.59196 24.0576 -30.8085 -4.0574 -15.5452 0.0 0.0 -0.0 0.0 -0.0 38.3282 24.4176 -16.3018 -30.4246 -0.0275686 -4.61452 19.3162 -13.7523 2.66301 16.6522 -0.0 -0.0 0.0 0.0 0.0 
2057.96 722.85 -1514.8 -10.2355 52.3566 4.1919 4.81651 0.43842 4.75359 4.82907 0.1354 4.7718 4.8302 -0.473158 4.75026 4.79884 0.282117 4.76539 -14.9547 14.3708 -0.625445 -15.6919 27.8518 4.42701 -0.0 0.0 -0.0 -7.26814 2.57891 -13.679 -10.3436 -9.26445 59.8667 2.50322 -51.1078 1.19701 45.1082 -0.641271 -5.57985 -0.789941 11.5098 -0.265411 -0.0 0.0 -0.0 10.1709 -4.78889 -19.6891 -49.9165 54.1401 -56.8643 0.690283 18.878 -0.11476 56.9399 1.5092 6.81857 -5.35912 -15.7953 27.7889 0.0 0.0 0.0 162.736 78.1624 -170.829 -16.6858 0.320374 2.53153 23.6101 -30.6119 -3.98294 -15.7169 0.0 0.0 -0.0 0.0 -0.0 39.0188 24.8674 -16.6983 -30.363 -0.0299917 -4.60537 18.6136 -14.3074 2.57689 16.4234 -0.0 -0.0 0.0 0.0 0.0 
2051.22 721.072 -1514.02 -10.1394 52.3325 3.85907 4.68554 0.427254 4.79281 4.69831 0.121769 4.81024 4.69868 -0.502649 4.78551 4.66683 0.25854 4.80484 -14.7836 14.5061 -0.912431 -15.5279 28.2707 4.1658 -0.0 0.0 -0.0 -7.27105 3.45735 -13.4496 -9.32899 -8.94695 59.0055 2.95736 -55.6715 1.56185 44.9856 -0.633658 -5.56614 -0.653532 9.69823 -0.175219 -0.0 0.0 -0.0 10.0747 -4.66018 -19.5084 -50.9888 53.8859 -56.5923 0.684804 18.7386 -0.112993 57.0034 1.51453 6.82472 -5.29402 -15.8939 27.2557 0.0 0.0 0.0 165.774 77.6085 -174.42 -15.8484 0.321972 2.40306 24.2711 -30.7081 -4.08231 -15.3164 0.0 0.0 -0.0 0.0 -0.0 39.9209 24.4565 -17.3924 -29.1522 -0.0756039 -4.42516 16.4077 -15.3967 2.298 15.7915 -0.0 -0.0 0.0 0.0 0.0 
2045.86 719.67 -1513.39 -9.51404 51.429 2.89686 4.58973 0.689847 4.85432 4.60276 0.379934 4.88827 4.62539 -0.262158 4.89598 4.59232 0.513419 4.87608 -14.4436 14.8938 -1.71387 -15.2184 29.4703 3.47295 -0.0 0.0 -0.0 -6.9549 2.36806 -13.1079 -8.05695 -5.25296 58.5667 3.33062 -58.7663 1.87578 44.8427 -0.624816 -5.55013 -0.552157 6.72961 -0.792118 -0.0 0.0 -0.0 10.0225 -4.60285 -19.4092 -52.0897 53.7996 -56.1659 0.671623 18.4025 -0.108795 57.3453 1.54336 6.8577 -5.18929 -16.1068 26.366 0.0 0.0 0.0 167.115 79.9417 -175.882 -15.99 0.321834 2.42478 26.059 -28.2436 -4.19914 -15.7039 0.0 0.0 -0.0 0.0 -0.0 40.8301 26.2381 -19.0342 -25.0521 -0.201568 -3.80865 17.7512 -17.6941 2.48876 15.9189 -0.0 -0.0 0.0 0.0 0.0 
2042.16 716.099 -1509.47 -11.0656 51.6275 4.09202 4.75535 0.589629 4.87397 4.76851 0.278672 4.90152 4.78189 -0.351252 4.89687 4.74869 0.425576 4.89098 -15.0336 14.2522 -0.810254 -15.7709 27.737 4.23078 -0.0 0.0 -0.0 -7.40585 1.68361 -14.1938 -6.86805 -8.49367 57.3202 3.44516 -59.6175 1.97416 44.3246 -0.593101 -5.49191 -0.655275 8.08187 -0.88104 -0.0 0.0 -0.0 9.79082 -4.37284 -18.9671 -52.0448 52.833 -56.0798 0.699273 19.1061 -0.117685 57.949 1.59477 6.91553 -5.42395 -16.7058 27.5725 0.0 0.0 0.0 172.6 77.4489 179.255 -15.1031 0.321816 2.28871 26.5258 -29.4123 -4.32272 -14.9634 0.0 0.0 -0.0 0.0 -0.0 41.6556 24.3115 -18.404 -22.0854 -0.265037 -3.35787 14.2315 -14.1826 2.00472 14.8908 -0.0 -0.0 0.0 0.0 0.0 
2037.48 712.274 -1510.93 -12.0904 52.0701 4.86993 4.89013 0.552237 4.84913 4.90317 0.24293 4.87437 4.913 -0.372178 4.86622 4.88019 0.400088 4.86401 -14.1162 14.175 -1.45631 -14.7723 27.9312 3.34738 -0.0 0.0 -0.0 -7.31926 1.61003 -14.0379 -5.19124 -7.30667 56.5902 3.7604 -61.7553 2.24908 44.5584 -0.607345 -5.51821 -0.703418 7.76591 -1.32918 -0.0 0.0 -0.0 9.67278 -4.95105 -18.6922 -53.0038 53.1152 -55.6766 0.646265 17.7521 -0.100927 58.4041 1.63393 6.95877 -5.39818 -16.8244 27.303 0.0 0.0 0.0 174.215 78.635 178.044 -14.6231 0.320927 2.21507 27.6622 -28.3684 -4.41629 -14.7772 0.0 0.0 -0.0 0.0 -0.0 42.2313 24.4067 -18.4242 -16.0956 -0.321696 -2.44098 11.6602 -13.4575 1.65578 14.1397 -0.0 -0.0 0.0 0.0 0.0 
2026.55 711.3 -1515.54 -12.8309 52.8062 5.51475 4.85002 0.617974 4.91811 4.86341 0.304162 4.94737 4.87867 -0.323392 4.94615 4.84484 0.460843 4.93527 -13.8631 14.2224 -1.35081 -14.4964 27.9467 3.39404 -0.0 0.0 -0.0 -7.34552 3.43165 -13.6043 -3.97224 -6.82232 55.7411 5.16866 -68.6404 3.52977 43.4993 -0.543678 -5.3986 -0.593455 4.91324 -1.84281 -0.0 0.0 -0.0 9.60534 -4.52979 -18.5894 -53.747 52.8509 -56.7291 0.666847 18.2803 -0.107292 58.8224 1.67022 6.99824 -5.41042 -16.6646 27.508 0.0 0.0 0.0 -177.816 80.8505 170.127 -11.6986 0.302189 1.76679 27.9862 -28.0862 -4.4431 -14.4592 0.0 0.0 -0.0 0.0 -0.0 42.3548 24.9167 -18.7923 -12.054 -0.305687 -1.82121 10.6231 -11.9265 1.51052 13.8187 -0.0 -0.0 0.0 0.0 0.0 
2011.35 708.546 -1517.57 -13.213 53.5743 5.77654 4.75017 0.595903 4.90477 4.7635 0.28298 4.93266 4.77729 -0.35136 4.92827 4.74367 0.43041 4.92201 -13.7531 14.1917 -1.4739 -14.3752 27.9574 3.23718 -0.0 0.0 -0.0 -7.48047 4.60606 -13.5477 -3.00656 -6.25758 55.305 6.94991 -73.7661 5.21772 43.1357 -0.522333 -5.35727 -0.564215 3.64339 -2.19742 -0.0 0.0 -0.0 9.39364 -4.40729 -18.1805 -55.3576 52.3992 -56.5477 0.652104 17.9023 -0.102714 59.1143 1.69571 7.02563 -5.39366 -16.552 27.4737 0.0 0.0 0.0 -171.629 80.8706 163.446 -9.71828 0.276521 1.46403 28.1397 -27.7484 -4.44501 -14.3751 0.0 0.0 -0.0 0.0 -0.0 42.6949 25.1828 -18.9565 -9.00675 -0.264745 -1.35549 9.83101 -11.9156 1.40164 13.4382 -0.0 -0.0 0.0 0.0 0.0 
2002.07 708.4 -1520.39 -13.1601 53.4614 6.13996 4.88901 0.641791 4.86309 4.9021 0.331419 4.89397 4.9195 -0.285988 4.89683 4.88639 0.49002 4.88067 -13.6459 14.1812 -1.64828 -14.2601 28.0384 3.04023 -0.0 0.0 -0.0 -7.51503 5.42559 -13.3848 -2.33447 -5.79675 54.8393 9.15689 -77.5166 7.35692 42.6304 -0.493106 -5.2996 -0.481645 2.15316 -2.29174 -0.0 0.0 -0.0 9.24997 -4.54033 -17.8899 -55.9455 52.2314 -56.8951 0.637775 17.5333 -0.0983533 59.1154 1.69581 7.02573 -5.36583 -16.4716 27.3374 0.0 0.0 0.0 -165.854 81.5808 157.234 -8.12495 0.248281 1.22118 28.932 -27.371 -4.52525 -14.1165 0.0 0.0 -0.0 0.0 -0.0 42.5402 25.1378 -19.7134 -5.535 -0.187996 -0.828327 9.39955 -11.5103 1.34143 13.2606 -0.0 -0.0 0.0 0.0 0.0 
1986.05 703.934 -1521.48 -13.2274 53.3451 6.59481 4.88937 0.621672 4.74887 4.90185 0.318582 4.77872 4.91803 -0.284372 4.78087 4.88646 0.473367 4.7659 -13.5845 14.132 -1.93266 -14.1933 28.115 2.73826 -0.0 0.0 -0.0 -7.62002 5.93543 -13.4429 -1.85749 -5.59626 54.4821 12.0773 -80.4418 10.2244 42.2355 -0.470617 -5.25436 -0.409696 0.916913 -2.34355 -0.0 0.0 -0.0 8.97426 -4.5813 -17.3481 -56.7793 51.958 -57.1228 0.625675 17.2205 -0.0947395 59.1302 1.6971 7.02711 -5.35961 -16.4796 27.2877 0.0 0.0 0.0 -161.865 81.5531 152.658 -6.87442 0.221391 1.03116 29.6869 -27.1279 -4.60594 -13.89 0.0 0.0 -0.0 0.0 -0.0 42.5616 25.6334 -19.99 -2.1739 -0.0833843 -0.32318 9.01863 -10.9464 1.28796 13.1343 -0.0 -0.0 0.0 0.0 0.0 
1979.25 702.325 -1522.05 -12.9318 53.8544 6.74721 4.79397 0.603148 4.59789 4.80568 0.309671 4.62687 4.82125 -0.281948 4.62864 4.79165 0.451799 4.61518 -13.5639 14.0871 -2.26007 -14.172 28.228 2.40834 -0.0 0.0 -0.0 -7.67551 6.09161 -13.5052 -1.42171 -5.4044 54.1166 15.3145 -82.4019 13.4259 41.8755 -0.450391 -5.21298 -0.358158 -0.0745699 -2.42423 -0.0 0.0 -0.0 8.91058 -4.56369 -17.2249 -57.0832 51.8846 -57.167 0.611938 16.8641 -0.0907138 59.1851 1.70192 7.03225 -5.35375 -16.5107 27.2235 0.0 0.0 0.0 -162.213 81.7635 153.634 -5.94984 0.198846 0.891066 30.5425 -27.2146 -4.71448 -13.7251 0.0 0.0 -0.0 0.0 -0.0 42.2371 26.0444 -20.0412 0.342692 0.0142628 0.0506545 8.74549 -10.6698 1.24977 13.055 -0.0 -0.0 0.0 0.0 0.0 
1973.03 700.493 -1523.06 -13.7623 53.915 8.06646 4.73292 0.499841 4.38113 4.74357 0.220322 4.404 4.75212 -0.347701 4.39579 4.72534 0.350206 4.39559 -13.527 13.7279 -2.45352 -14.101 27.6606 2.08725 -0.0 0.0 -0.0 -7.64076 5.69394 -13.5526 -0.910407 -5.10063 53.6642 18.7482 -83.7444 16.8348 40.4345 -0.372054 -5.04614 -0.403867 -1.28036 -3.2474 -0.0 0.0 -0.0 8.97492 -4.43319 -17.3579 -57.7585 52.1747 -56.7637 0.562849 15.5796 -0.0769995 59.4804 1.72789 7.05979 -5.41818 -17.1217 27.2215 0.0 0.0 0.0 -160.977 82.2329 152.213 -5.16248 0.177865 0.772056 31.6984 -28.8949 -4.94795 -13.1171 0.0 0.0 -0.0 0.0 -0.0 42.0835 26.3068 -20.0379 2.31759 0.102352 0.340872 7.84282 -10.4667 1.12386 13.1775 -0.0 -0.0 0.0 0.0 0.0 
1959.99 697.533 -1524.1 -13.7081 53.9617 7.92292 4.72309 0.406418 4.35651 4.73364 0.128649 4.3735 4.73521 -0.436232 4.35363 4.70886 0.25614 4.3679 -12.8341 13.9676 -2.65697 -13.3632 28.2198 1.78908 -0.0 0.0 -0.0 -7.52604 4.91973 -13.5491 0.184382 -5.09414 53.7195 21.6894 -84.5544 19.7607 39.6641 -0.331909 -4.95617 -0.263543 -2.28205 -2.73435 -0.0 0.0 -0.0 8.91617 -4.55347 -17.2363 -57.506 51.7682 -57.1436 0.468688 13.0712 -0.0536957 59.1205 1.69626 7.02621 -5.28819 -16.1833 27.0034 0.0 0.0 0.0 -159.986 82.1459 150.694 -4.55414 0.160535 0.680303 32.8368 -27.8872 -5.02198 -13.3802 0.0 0.0 -0.0 0.0 -0.0 43.5692 26.1575 -20.9827 4.20696 0.195963 0.615587 0.177717 -9.46014 0.0260008 11.0948 -0.0 -0.0 0.0 0.0 0.0 
